<?xml version="1.0" standalone="no"?>
<!DOCTYPE svg PUBLIC "-//W3C//DTD SVG 20010904//EN"
 "http://www.w3.org/TR/2001/REC-SVG-20010904/DTD/svg10.dtd">
<svg version="1.0" xmlns="http://www.w3.org/2000/svg"
 width="700.000000pt" height="700.000000pt" viewBox="0 0 700.000000 700.000000"
 preserveAspectRatio="xMidYMid meet">
<metadata>
Created by potrace 1.11, written by Peter Selinger 2001-2013
</metadata>
<g transform="translate(0.000000,700.000000) scale(0.100000,-0.100000)"
fill="#000000" stroke="none">
<path d="M3317 6294 c-1 -1 -47 -4 -102 -8 -213 -14 -339 -33 -521 -80 -529
-134 -916 -441 -1077 -856 -62 -160 -88 -299 -91 -490 -6 -344 97 -613 318
-836 190 -191 444 -315 831 -404 155 -36 189 -46 181 -58 -9 -14 -49 -295 -49
-345 0 -39 5 -53 25 -74 35 -35 95 -35 140 -1 18 13 151 111 295 217 144 105
267 199 274 207 20 24 14 78 -12 117 -13 19 -109 140 -214 270 -211 262 -230
278 -308 256 -19 -5 -39 -20 -49 -37 -9 -15 -29 -100 -43 -187 -15 -88 -30
-163 -33 -166 -15 -14 -473 116 -525 148 -6 4 -18 8 -26 9 -18 3 -165 89 -198
117 -186 153 -290 323 -339 552 -18 84 -26 279 -13 355 5 30 11 71 14 90 39
244 205 490 446 663 103 73 333 187 410 202 9 2 47 13 85 24 87 27 302 67 419
77 159 15 599 8 690 -10 11 -2 43 -7 70 -10 567 -74 992 -346 1169 -747 46
-106 87 -243 101 -334 3 -23 8 -52 10 -65 5 -25 9 -78 20 -244 4 -65 11 -98
26 -122 46 -75 170 -69 213 11 17 30 18 49 12 177 -6 158 -10 189 -32 298 -37
185 -95 345 -179 492 -27 46 -51 85 -54 88 -3 3 -25 30 -47 60 -305 409 -896
636 -1674 644 -89 1 -162 1 -163 0z"/>
<path d="M2785 5591 c-180 -52 -318 -184 -376 -360 -28 -82 -33 -217 -12 -299
51 -198 207 -355 403 -407 79 -21 228 -14 309 14 318 110 462 465 313 770 -68
140 -220 259 -370 290 -77 16 -198 12 -267 -8z"/>
<path d="M4042 3615 c-72 -32 -83 -156 -17 -199 23 -15 112 -40 175 -50 124
-19 386 -101 519 -162 319 -148 501 -360 578 -674 24 -99 26 -358 3 -485 -73
-402 -300 -695 -689 -890 -109 -55 -351 -136 -476 -160 -205 -39 -371 -55
-590 -55 -463 0 -836 85 -1140 259 -133 76 -287 207 -393 335 -34 41 -103 152
-144 232 -45 88 -117 300 -108 316 1 2 -4 16 -10 32 -6 16 -13 45 -16 65 -2
20 -7 54 -10 76 -3 22 -7 51 -9 65 -2 14 -7 90 -10 170 -8 177 -23 221 -80
240 -49 16 -111 7 -140 -20 -39 -37 -48 -94 -42 -267 4 -87 8 -167 11 -178 2
-11 7 -42 10 -68 62 -462 291 -852 646 -1103 285 -201 629 -323 1040 -368 138
-15 202 -19 365 -19 209 0 372 11 535 38 14 3 43 7 65 10 66 11 234 53 330 83
303 97 565 253 748 446 50 53 167 200 167 211 0 3 11 23 25 44 66 99 156 355
170 481 3 30 8 63 11 72 9 32 11 282 3 353 -23 199 -70 348 -156 494 -138 233
-371 412 -710 545 -77 30 -291 95 -368 112 -165 37 -240 42 -293 19z"/>
<path d="M4098 2755 c-194 -48 -354 -205 -403 -395 -78 -301 107 -606 410
-680 67 -16 187 -14 258 5 202 53 359 215 401 417 60 284 -112 570 -389 646
-85 23 -200 26 -277 7z"/>
</g>
</svg>
