<svg version="1.1" id="Layer_1" xmlns="http://www.w3.org/2000/svg" xmlns:xlink="http://www.w3.org/1999/xlink" x="0px" y="0px"
	 width="151.017px" height="50.319px" viewBox="0 0 151.017 50.319" enable-background="new 0 0 151.017 50.319"
	 xml:space="preserve">
<g>
	<path fill="#189FD6" d="M18.393,49.213c-5.141,0-9.487-1.265-12.568-3.658c-3.542-2.751-5.337-6.85-5.337-12.184
		c0-0.882,0.15-1.784,1.268-1.784c1.204,0,1.204,1.16,1.204,1.784c0,4.485,1.446,7.948,4.297,10.291
		c2.695,2.214,6.507,3.337,11.33,3.337c4.394,0,8.116-0.975,10.764-2.818c2.844-1.979,4.347-4.937,4.347-8.553
		c0-4.661-2.659-7.497-8.367-8.924c-0.422-0.106-0.861-0.191-1.249-0.266c-0.585-0.113-1.047-0.203-1.288-0.323
		c-0.215-0.107-0.575-0.372-0.575-0.935c0-0.72,0.458-1.204,1.139-1.204c0.523,0,1.425,0.088,3.771,0.778
		c1.292,0.387,2.536,0.911,3.698,1.557c3.502,1.93,5.279,5.064,5.279,9.316c0,4.139-1.688,7.594-4.879,9.993
		C28.098,47.971,23.661,49.213,18.393,49.213z M13.085,28.621c-0.283,0-0.543-0.112-0.715-0.308
		c-0.126-0.145-0.266-0.405-0.209-0.824l0.436-2.867c-1.716-0.345-3.67-0.799-5.275-1.535c-1.809-0.785-3.316-1.974-4.356-3.437
		c-1.173-1.652-1.769-3.631-1.769-5.882c0-3.702,1.477-6.828,4.272-9.04c2.905-2.298,7.151-3.514,12.279-3.514
		c5.334,0,9.543,1.139,12.511,3.383c3.28,2.482,4.944,6.261,4.944,11.234c0,0.58-0.377,1.204-1.204,1.204
		c-0.827,0-1.204-0.624-1.204-1.204c0-4.506-1.509-7.828-4.483-9.875c-2.501-1.721-6.12-2.593-10.757-2.593
		c-8.514,0-14.016,4.008-14.016,10.21c0,3.209,1.593,5.921,4.262,7.255c1.339,0.641,3.005,1.158,5.087,1.581l0.433-2.599
		c0.088-0.575,0.56-0.833,0.987-0.833c0.335,0,0.654,0.143,0.876,0.392l3.228,4.002c0.276,0.346,0.411,0.621,0.411,0.841
		c0,0.228-0.087,0.552-0.503,0.802l-4.635,3.412C13.519,28.552,13.306,28.621,13.085,28.621z"/>
	<path fill="#189FD6" d="M22.843,26.019c-0.258-0.129-0.516-0.387-0.516-0.838c0-0.709,0.451-1.096,1.032-1.096
		c0.58,0,1.548,0.129,3.74,0.774c1.29,0.387,2.515,0.903,3.676,1.548c3.16,1.741,5.224,4.643,5.224,9.222
		c0,8.448-7.029,13.478-17.605,13.478c-9.608,0-17.798-4.449-17.798-15.734c0-0.839,0.128-1.677,1.16-1.677s1.097,0.903,1.097,1.677
		c0,9.351,6.319,13.735,15.735,13.735c8.577,0,15.219-3.74,15.219-11.479c0-5.353-3.546-7.803-8.448-9.028
		C24.326,26.342,23.23,26.213,22.843,26.019z M12.718,24.536c-1.935-0.387-3.805-0.838-5.352-1.548
		c-3.418-1.483-6.062-4.514-6.062-9.222c0-7.287,5.804-12.446,16.444-12.446c10.06,0,17.347,4.127,17.347,14.509
		c0,0.581-0.387,1.097-1.097,1.097s-1.096-0.516-1.096-1.097c0-9.802-6.965-12.575-15.348-12.575
		c-8.126,0-14.123,3.74-14.123,10.318c0,3.418,1.741,6.062,4.321,7.352c1.483,0.709,3.289,1.225,5.223,1.612l0.452-2.708
		c0.129-0.838,1.161-0.967,1.677-0.387l3.224,3.999c0.258,0.322,0.387,0.58,0.387,0.773c0,0.258-0.129,0.516-0.452,0.709
		l-4.643,3.418c-0.516,0.387-1.483,0.129-1.354-0.838L12.718,24.536z"/>
	<circle fill="#DD397C" cx="13.368" cy="11.876" r="4.717"/>
	<circle fill="#DD397C" cx="24.438" cy="36.166" r="4.717"/>
	<g>
		<path fill="#DD397C" d="M57.587,21.752c-0.434-0.723-1.626-1.41-3-1.41c-1.771,0-2.621,0.741-2.621,1.681
			c0,1.102,1.301,1.41,2.82,1.59c2.639,0.325,5.097,1.012,5.097,4.031c0,2.819-2.494,4.03-5.314,4.03
			c-2.584,0-4.572-0.795-5.513-3.109l1.988-1.03c0.561,1.392,2.024,2.006,3.561,2.006c1.5,0,2.91-0.524,2.91-1.897
			c0-1.193-1.247-1.681-2.928-1.862c-2.585-0.307-4.971-0.994-4.971-3.832c0-2.603,2.566-3.669,4.898-3.688
			c1.97,0,4.012,0.561,4.97,2.513L57.587,21.752z"/>
		<path fill="#DD397C" d="M70.345,27.681h-6.958c0.145,1.103,1.103,1.897,2.657,1.897c0.813,0,1.88-0.307,2.386-0.831l1.409,1.392
			c-0.939,0.976-2.476,1.446-3.831,1.446c-3.073,0-4.898-1.897-4.898-4.753c0-2.711,1.844-4.663,4.735-4.663
			C68.827,22.168,70.688,24.012,70.345,27.681z M63.422,25.855h4.808c-0.145-1.157-1.048-1.735-2.313-1.735
			C64.724,24.121,63.748,24.699,63.422,25.855z M68.447,18.427h-2.603l-1.337,2.458v0.108h1.952l1.988-2.476V18.427z"/>
		<path fill="#DD397C" d="M74.965,19.927v2.53h2.458v1.898h-2.476v3.85c0,0.85,0.47,1.265,1.157,1.265
			c0.343,0,0.741-0.108,1.066-0.271l0.614,1.88c-0.632,0.253-1.157,0.361-1.825,0.379c-1.934,0.072-3.199-1.03-3.199-3.253v-3.85
			h-1.663v-1.898h1.663v-2.295L74.965,19.927z"/>
		<path fill="#DD397C" d="M85.751,22.439h2.115v8.911h-2.079l-0.108-1.301c-0.506,1.048-1.898,1.554-2.892,1.572
			c-2.639,0.018-4.591-1.608-4.591-4.735c0-3.073,2.042-4.681,4.646-4.663c1.193,0,2.332,0.56,2.837,1.446L85.751,22.439z
			 M80.401,26.886c0,1.699,1.175,2.711,2.639,2.711c3.47,0,3.47-5.404,0-5.404C81.576,24.193,80.401,25.187,80.401,26.886z"/>
		<path fill="#DD397C" d="M95.929,31.35v-4.771c0-1.175-0.614-2.241-1.826-2.241c-1.193,0-1.898,1.066-1.898,2.241v4.771H90v-8.929
			h2.042l0.163,1.084c0.47-0.904,1.5-1.229,2.35-1.229c1.066,0,2.132,0.434,2.639,1.663c0.795-1.265,1.825-1.626,2.982-1.626
			c2.531,0,3.778,1.554,3.778,4.229v4.808h-2.205v-4.808c0-1.175-0.488-2.169-1.681-2.169c-1.192,0-1.934,1.03-1.934,2.205v4.771
			H95.929z"/>
		<path fill="#DD397C" d="M107.932,22.439v4.663c0,1.355,0.741,2.386,2.151,2.386c1.355,0,2.277-1.139,2.277-2.494v-4.555h2.187
			v8.929h-1.97l-0.144-1.211c-0.922,0.904-1.771,1.337-3.019,1.337c-2.133,0-3.687-1.609-3.687-4.374v-4.681H107.932z
			 M111.077,18.662h-2.114l-1.446,2.313h1.663l1.897-2.241V18.662z M114.041,18.68h-2.115l-1.464,2.313h1.645l1.934-2.241V18.68z"/>
		<path fill="#DD397C" d="M118.851,18.698v4.952c0.796-1.03,1.771-1.337,2.784-1.337c2.53,0,3.651,1.717,3.651,4.338v4.699h-2.205
			v-4.681c0-1.627-0.85-2.313-2.024-2.313c-1.301,0-2.205,1.103-2.205,2.44v4.555h-2.205V18.698H118.851z"/>
		<path fill="#DD397C" d="M128.964,27.681c0.145,1.103,1.103,1.897,2.657,1.897c0.813,0,1.88-0.307,2.386-0.831l1.41,1.392
			c-0.94,0.976-2.476,1.446-3.832,1.446c-3.073,0-4.898-1.897-4.898-4.753c0-2.711,1.844-4.663,4.736-4.663
			c2.982,0,4.844,1.843,4.5,5.513H128.964z M133.808,25.855c-0.145-1.157-1.048-1.735-2.313-1.735c-1.192,0-2.168,0.578-2.494,1.735
			H133.808z"/>
		<path fill="#DD397C" d="M139.591,18.716V31.35h-2.188V18.716H139.591z"/>
		<path fill="#DD397C" d="M150.529,22.439l-5.603,12.996h-2.422l1.825-4.229l-3.56-8.766h2.566l1.355,3.85l0.85,2.513l0.922-2.458
			l1.626-3.904H150.529z"/>
	</g>
</g>
</svg>
