<?xml version="1.0" encoding="UTF-8"?>
<svg width="512px" height="512px" viewBox="0 0 512 512" version="1.1" xmlns="http://www.w3.org/2000/svg" xmlns:xlink="http://www.w3.org/1999/xlink">
    <!-- Generator: Sketch 46.2 (44496) - http://www.bohemiancoding.com/sketch -->
    <title>Artboard</title>
    <desc>Created with Sketch.</desc>
    <defs></defs>
    <g id="Page-1" stroke="none" stroke-width="1" fill="none" fill-rule="evenodd">
        <g id="Artboard" fill-rule="nonzero">
            <g id="sm-logo-only" transform="translate(105.000000, 51.000000)">
                <g id="Group">
                    <path d="M190.4897,211.90126 C188.292991,210.801862 186.087052,208.603067 186.087052,204.722841 C186.087052,198.662297 189.945138,195.336389 194.910808,195.336389 C199.867249,195.336389 208.146444,196.445025 226.901542,201.951251 C237.912778,205.26792 248.397912,209.683987 258.329253,215.227168 C285.335856,230.129085 302.9926,254.962533 302.9926,294.152819 C302.9926,366.472847 242.878449,409.506405 152.444171,409.506405 C70.2890878,409.506405 0.243595411,371.433993 0.243595411,274.844074 C0.243595411,267.665655 1.35117995,260.487236 10.1657069,260.487236 C18.9802339,260.487236 19.543256,268.219973 19.543256,274.844074 C19.543256,354.8876 73.5749219,392.414932 154.096318,392.414932 C227.446104,392.414932 284.246731,360.375348 284.246731,294.152819 C284.246731,248.338433 253.908145,227.366733 211.98607,216.880883 C203.190003,214.654373 193.803224,213.564214 190.4897,211.90126 Z M103.913508,199.207376 C87.3735793,195.899945 71.3966723,192.038196 58.1518072,185.949936 C28.9208052,173.246815 6.31685064,147.30473 6.31685064,107.024285 C6.31685064,44.6450278 55.9550978,0.502834028 146.933938,0.502834028 C232.965567,0.502834028 295.267198,35.8221322 295.267198,124.688554 C295.267198,129.668177 291.962904,134.093483 285.898878,134.093483 C279.825623,134.093483 276.512099,129.658939 276.512099,124.670076 C276.512099,40.7832787 216.960971,17.067705 145.281791,17.067705 C75.790091,17.067705 24.5181566,49.0795722 24.5181566,105.389047 C24.5181566,134.638563 39.4243986,157.263978 61.4468712,168.322623 C74.137944,174.383167 89.5702886,178.799234 106.119448,182.106665 L109.977534,158.917693 C111.075888,151.739274 119.908875,150.630638 124.320754,155.610262 L151.890379,189.830163 C154.096318,192.592514 155.194673,194.791309 155.194673,196.454263 C155.194673,198.671536 154.096318,200.879569 151.345816,202.533285 L111.64814,231.7828 C107.236262,235.090231 98.9570676,232.882198 100.064652,224.595143 L103.913508,199.207376 Z" id="Shape" fill="#149ED5"></path>
                    <ellipse id="Oval" fill="#E42A85" cx="109.479121" cy="90.8381983" rx="40.334537" ry="40.3728311"></ellipse>
                    <ellipse id="Oval" fill="#E42A85" cx="204.14068" cy="298.753659" rx="40.334537" ry="40.3728311"></ellipse>
                </g>
            </g>
        </g>
    </g>
</svg>