<?xml version="1.0" encoding="utf-8"?>
<!-- Generator: Adobe Illustrator 16.0.0, SVG Export Plug-In . SVG Version: 6.00 Build 0)  -->
<!DOCTYPE svg PUBLIC "-//W3C//DTD SVG 1.1//EN" "http://www.w3.org/Graphics/SVG/1.1/DTD/svg11.dtd">
<svg version="1.1" id="Layer_1" xmlns:sketch="http://www.bohemiancoding.com/sketch/ns"
	 xmlns="http://www.w3.org/2000/svg" xmlns:xlink="http://www.w3.org/1999/xlink" x="0px" y="0px" width="156px" height="50px"
	 viewBox="0 0 156 50" enable-background="new 0 0 156 50" xml:space="preserve">
<g>
	<path fill="#ffffff" d="M22.145,25.747c-0.238-0.119-0.477-0.357-0.477-0.777c0-0.656,0.418-1.016,0.956-1.016
		c0.537,0,1.434,0.12,3.466,0.716c1.193,0.359,2.329,0.837,3.405,1.437c2.926,1.613,4.839,4.301,4.839,8.543
		c0,7.828-6.513,12.486-16.311,12.486c-8.901,0-16.49-4.121-16.49-14.576c0-0.777,0.12-1.554,1.075-1.554s1.016,0.837,1.016,1.554
		c0,8.664,5.854,12.726,14.578,12.726c7.947,0,14.101-3.468,14.101-10.636c0-4.959-3.287-7.229-7.829-8.364
		C23.521,26.045,22.504,25.927,22.145,25.747z M12.765,24.373c-1.792-0.358-3.523-0.776-4.958-1.435
		c-3.167-1.375-5.616-4.183-5.616-8.543c0-6.752,5.378-11.53,15.235-11.53c9.321,0,16.071,3.823,16.071,13.442
		c0,0.539-0.358,1.018-1.015,1.018c-0.658,0-1.017-0.48-1.017-1.02c0-9.08-6.452-11.647-14.218-11.647
		c-7.529,0-13.084,3.465-13.084,9.56c0,3.166,1.615,5.615,4.001,6.812c1.375,0.656,3.047,1.134,4.84,1.492l0.418-2.51
		c0.119-0.777,1.076-0.897,1.554-0.358l2.987,3.704c0.239,0.299,0.358,0.537,0.358,0.717c0,0.24-0.119,0.479-0.417,0.658
		l-4.301,3.166c-0.478,0.358-1.375,0.119-1.255-0.778L12.765,24.373z"/>
	<circle fill="#ffffff" cx="13.368" cy="12.643" r="4.37"/>
	<circle fill="#ffffff" cx="23.624" cy="35.148" r="4.37"/>
</g>
<g>
	<path fill="#ffffff" d="M50.187,19.104c-0.93,0-0.84-1.681-2.67-1.681c-1.229,0-2.25,1.021-2.25,2.25s0.601,1.95,2.7,2.49
		c2.1,0.539,4.29,2.22,4.29,5.101c0,2.85-2.311,5.16-5.16,5.16c-1.29,0-2.43-0.48-3.33-1.23c-0.51-0.45-1.229-1.17-1.229-1.74
		c0-0.42,0.33-0.75,0.75-0.75c0.66,0,0.75,0.689,1.229,1.141c0.48,0.45,1.23,1.08,2.58,1.08c2.01,0,3.66-1.65,3.66-3.66
		c0-2.189-1.561-3.24-3.54-3.75c-2.37-0.6-3.45-1.89-3.45-3.84c0-2.07,1.68-3.75,3.75-3.75c2.04,0,3.42,1.74,3.42,2.43
		C50.937,18.774,50.607,19.104,50.187,19.104z"/>
	<path fill="#ffffff" d="M59.756,30.925c0.93,0,1.8-0.359,2.46-0.9c0.779-0.629,1.709,0.48,0.959,1.141
		c-0.899,0.78-2.129,1.262-3.419,1.262c-2.91,0-5.25-2.341-5.25-5.25c0-2.91,2.34-5.25,5.25-5.25c1.291,0,2.52,0.479,3.419,1.26
		c0.75,0.66-0.18,1.77-0.959,1.14c-0.66-0.54-1.53-0.899-2.46-0.899c-1.8,0-3.33,1.291-3.66,3h7.141c0.42,0,0.749,0.33,0.749,0.75
		s-0.329,0.75-0.749,0.75h-7.141C56.426,29.636,57.957,30.925,59.756,30.925z M57.867,19.733c-0.3-0.27-0.3-0.75,0-1.049
		l2.939-2.939c0.3-0.3,0.75-0.3,1.05,0c0.301,0.3,0.301,0.75,0,1.05l-2.939,2.938C58.617,20.035,58.136,20.035,57.867,19.733z"/>
	<path fill="#ffffff" d="M67.646,28.644c0,1.261,1.05,2.28,2.279,2.28s2.279-1.021,2.279-2.28v-0.149c0-0.42,0.33-0.75,0.75-0.75
		c0.422,0,0.75,0.33,0.75,0.75v0.149c0,2.07-1.68,3.78-3.779,3.78c-2.098,0-3.779-1.71-3.779-3.78c0-0.6,0-10.77,0-10.77h1.5v4.199
		h4.32c0.42,0,0.75,0.33,0.75,0.75s-0.33,0.75-0.75,0.75h-4.32V28.644z"/>
	<path fill="#ffffff" d="M75.716,22.824c0-0.42,0.33-0.75,0.75-0.75h6v10.649l-1.648-1.109c-0.541,0.24-1.592,0.75-2.4,0.75
		c-2.041,0-3.66-0.899-3.66-2.641c0-1.92,2.01-2.939,3.869-2.939c0.811,0,1.621,0.15,2.34,0.359v-3.569h-4.5
		C76.046,23.574,75.716,23.244,75.716,22.824z M80.966,28.704c-0.721-0.239-1.59-0.42-2.34-0.42c-1.08,0-2.371,0.359-2.371,1.439
		c0,0.84,0.99,1.141,2.16,1.141c0.57,0,1.621-0.45,2.55-0.93V28.704L80.966,28.704z"/>
	<path fill="#ffffff" d="M93.864,31.675c0,0.42-0.328,0.75-0.75,0.75c-0.42,0-0.748-0.33-0.748-0.75v-5.971
		c0-1.26-1.051-2.279-2.281-2.279c-1.229,0-2.279,1.021-2.279,2.279v6.57h-1.5v-10.5l1.199,1.199c0.721-0.75,1.74-1.05,2.58-1.05
		c1.262,0,2.34,0.601,3.029,1.529c0.691-0.931,1.771-1.529,3.031-1.529c2.1,0,3.779,1.71,3.779,3.779v5.971
		c0,0.421-0.33,0.75-0.75,0.75s-0.75-0.329-0.75-0.75v-5.971c0-1.26-1.051-2.279-2.279-2.279c-1.23,0-2.281,1.021-2.281,2.279
		V31.675z"/>
	<path fill="#ffffff" d="M107.245,30.925c1.23,0,2.281-1.021,2.281-2.279v-5.971c0-0.42,0.33-0.75,0.75-0.75s0.75,0.33,0.75,0.75
		v5.971c0,2.069-1.68,3.779-3.781,3.779c-2.1,0-3.779-1.71-3.779-3.779v-5.971c0-0.42,0.33-0.75,0.75-0.75
		c0.422,0,0.75,0.33,0.75,0.75v5.971C104.966,29.904,106.017,30.925,107.245,30.925z M104.005,19.705
		c-0.301-0.271-0.301-0.75,0-1.051l2.939-2.939c0.301-0.3,0.75-0.3,1.051,0c0.299,0.3,0.299,0.75,0,1.05l-2.939,2.94
		C104.755,20.005,104.276,20.005,104.005,19.705z M109.106,19.705c-0.301-0.271-0.301-0.75,0-1.051l2.938-2.939
		c0.301-0.3,0.75-0.3,1.051,0s0.301,0.75,0,1.05l-2.939,2.94C109.856,20.005,109.376,20.005,109.106,19.705z"/>
	<path fill="#ffffff" d="M117.216,12.715v9.96c0.631-0.449,1.439-0.75,2.281-0.75c2.1,0,3.777,1.711,3.777,3.779v5.971
		c0,0.42-0.328,0.75-0.75,0.75c-0.42,0-0.748-0.33-0.748-0.75v-5.971c0-1.26-1.051-2.279-2.279-2.279
		c-1.23,0-2.281,1.021-2.281,2.279v6.57h-1.5V12.714L117.216,12.715L117.216,12.715z"/>
	<path fill="#ffffff" d="M131.466,30.925c0.93,0,1.801-0.359,2.461-0.9c0.779-0.629,1.709,0.48,0.959,1.141
		c-0.9,0.78-2.129,1.262-3.42,1.262c-2.91,0-5.25-2.341-5.25-5.25c0-2.91,2.34-5.25,5.25-5.25c1.291,0,2.52,0.479,3.42,1.26
		c0.75,0.66-0.18,1.77-0.959,1.14c-0.66-0.54-1.531-0.899-2.461-0.899c-1.799,0-3.33,1.291-3.66,3h7.141
		c0.422,0,0.75,0.33,0.75,0.75s-0.328,0.75-0.75,0.75h-7.141C128.136,29.636,129.667,30.925,131.466,30.925z"/>
	<path fill="#ffffff" d="M144.606,31.675c0,0.42-0.33,0.75-0.75,0.75c-0.24,0-0.48-0.119-0.66-0.359
		c-0.811-1.17-1.529-2.25-2.131-3.36c-0.629,1.08-1.35,2.19-2.16,3.36c-0.18,0.24-0.42,0.359-0.658,0.359
		c-0.42,0-0.75-0.33-0.75-0.75c0-0.15,0.029-0.301,0.148-0.449c0.99-1.44,1.859-2.791,2.551-4.142
		c-1.109-2.34-1.74-4.771-1.74-7.919c0-4.2,1.381-6.6,2.58-6.6s2.609,2.398,2.609,6.6c0,3.119-0.629,5.579-1.74,7.919
		c0.689,1.351,1.561,2.7,2.551,4.142C144.546,31.374,144.606,31.524,144.606,31.675z M141.036,14.575c-0.6,0-1.08,1.77-1.08,4.59
		c0,2.34,0.391,4.26,1.08,6.061c0.721-1.801,1.109-3.721,1.109-6.061C142.146,16.375,141.636,14.575,141.036,14.575z"/>
	<path fill="#ffffff" d="M151.386,27.265c1.111,2.34,1.74,4.801,1.74,7.92c0,4.199-1.41,6.601-2.609,6.601
		c-1.201,0-2.58-2.399-2.58-6.601c0-3.149,0.629-5.58,1.74-7.92c-0.689-1.351-1.561-2.699-2.551-4.14
		c-0.389-0.601,0.121-1.2,0.631-1.2c0.24,0,0.449,0.12,0.629,0.359c0.812,1.17,1.531,2.279,2.16,3.359
		c0.6-1.109,1.32-2.189,2.131-3.359c0.18-0.239,0.389-0.359,0.629-0.359c0.541,0.03,1.021,0.6,0.631,1.2
		C152.946,24.563,152.077,25.914,151.386,27.265z M150.517,29.125c-0.689,1.8-1.08,3.72-1.08,6.06c0,2.819,0.48,4.59,1.08,4.59
		c0.602,0,1.109-1.799,1.109-4.59C151.626,32.845,151.237,30.925,150.517,29.125z"/>
</g>
</svg>
